<svg xmlns="http://www.w3.org/2000/svg" viewBox="0 0 400 250"><defs><radialGradient id="g"><stop stop-color="#e3b981" stop-opacity=".28"/><stop offset="1" stop-color="#493b32"/></radialGradient></defs><path fill="#493b32" d="M0 0h400v250H0z"/><path fill="url(#g)" d="M0 0h400v250H0z"/><circle cx="340" cy="40" r="65" fill="#e3b981" opacity=".08"/><circle cx="50" cy="230" r="80" fill="#e3b981" opacity=".08"/><g fill="none" stroke="#e3b981" stroke-width="3" stroke-linejoin="round" stroke-linecap="round"><path d="M90 204V57h220v147" fill="#c9ae86"/><path d="M143 204V121a57 57 0 0 1 114 0v83" fill="#3e5051"/><path d="M161 204v-79a39 39 0 0 1 78 0v79" fill="#9b603e"/><path d="M200 87v117m-29-87v85m58-85v85M92 82h48m120 0h48M92 111h37m142 0h37M92 146h37m142 0h37M92 178h37m142 0h37" stroke="#735744"/><circle cx="189" cy="157" r="5" fill="#ffd580"/><circle cx="211" cy="157" r="5" fill="#ffd580"/><path d="M112 28v25m-12-13h24m164-12v25m-12-13h24" stroke="#f6cf83"/></g></svg>