<svg xmlns="http://www.w3.org/2000/svg" viewBox="0 0 400 250"><defs><radialGradient id="g"><stop stop-color="#bfc7ff" stop-opacity=".28"/><stop offset="1" stop-color="#303b74"/></radialGradient></defs><path fill="#303b74" d="M0 0h400v250H0z"/><path fill="url(#g)" d="M0 0h400v250H0z"/><circle cx="340" cy="40" r="65" fill="#bfc7ff" opacity=".08"/><circle cx="50" cy="230" r="80" fill="#bfc7ff" opacity=".08"/><g fill="none" stroke="#bfc7ff" stroke-width="3" stroke-linejoin="round" stroke-linecap="round"><path d="M135 194V50m0 10q35-23 70-5t64 0v100q-30 18-64 0t-70 5" fill="#f4f0df"/><path d="M138 62q33-20 67-3t62 0v32q-32 18-62 0t-67 3" fill="#e26767"/><path d="M138 127q33-20 67-3t62 0v28q-32 18-62 0t-67 3" fill="#50a886"/></g></svg>