<svg xmlns="http://www.w3.org/2000/svg" viewBox="0 0 400 250"><defs><radialGradient id="g"><stop stop-color="#ffca84" stop-opacity=".28"/><stop offset="1" stop-color="#79472c"/></radialGradient></defs><path fill="#79472c" d="M0 0h400v250H0z"/><path fill="url(#g)" d="M0 0h400v250H0z"/><circle cx="340" cy="40" r="65" fill="#ffca84" opacity=".08"/><circle cx="50" cy="230" r="80" fill="#ffca84" opacity=".08"/><g fill="none" stroke="#ffca84" stroke-width="3" stroke-linejoin="round" stroke-linecap="round"><path d="M209 84c-22-28-65-20-65 25 0 54 35 79 57 63 28 21 63-17 63-65 0-40-35-52-55-23" fill="#f06c60"/><path d="M205 85q-10-39 20-51m-16 28q16-34 47-17-13 31-47 17" fill="#81bb62"/><path d="M165 105q-8 20 4 39" stroke="#ffb4a0" stroke-width="10"/></g></svg>