<svg xmlns="http://www.w3.org/2000/svg" viewBox="0 0 400 250"><defs><radialGradient id="g"><stop stop-color="#9edbe7" stop-opacity=".28"/><stop offset="1" stop-color="#254d64"/></radialGradient></defs><path fill="#254d64" d="M0 0h400v250H0z"/><path fill="url(#g)" d="M0 0h400v250H0z"/><circle cx="340" cy="40" r="65" fill="#9edbe7" opacity=".08"/><circle cx="50" cy="230" r="80" fill="#9edbe7" opacity=".08"/><g fill="none" stroke="#9edbe7" stroke-width="3" stroke-linejoin="round" stroke-linecap="round"><rect x="122" y="44" width="156" height="168" rx="19" fill="#d3e7e6"/><rect x="138" y="60" width="124" height="41" rx="6" fill="#396579"/><path d="M151 122v27m-13-14h27m28 0h27m17-12 23 23m0-23-23 23m-117 35h27m-14-13v26m35-20h27m-27 14h27m25-14h27m-27 14h27" stroke="#3b6176" stroke-width="6"/></g></svg>