<svg xmlns="http://www.w3.org/2000/svg" viewBox="0 0 400 250"><defs><radialGradient id="g"><stop stop-color="#dbc88d" stop-opacity=".28"/><stop offset="1" stop-color="#28504b"/></radialGradient></defs><path fill="#28504b" d="M0 0h400v250H0z"/><path fill="url(#g)" d="M0 0h400v250H0z"/><circle cx="340" cy="40" r="65" fill="#dbc88d" opacity=".08"/><circle cx="50" cy="230" r="80" fill="#dbc88d" opacity=".08"/><g fill="none" stroke="#dbc88d" stroke-width="3" stroke-linejoin="round" stroke-linecap="round"><path d="M107 74q47-22 93 2 46-24 93-2v109q-47-22-93 3-46-25-93-3z" fill="#efe3bc"/><path d="M200 80v104M125 99l51 5m-51 14 51 5m-51 14 51 5m-51 14 51 5m49-57 51-5m-51 24 51-5m-51 24 51-5m-51 24 51-5" stroke="#608b77"/><path d="m151 214 97-23m-97 0 97 23" stroke-width="9"/></g></svg>